<?xml version="1.0" standalone="no"?>
<!DOCTYPE svg PUBLIC "-//W3C//DTD SVG 20010904//EN"
 "http://www.w3.org/TR/2001/REC-SVG-20010904/DTD/svg10.dtd">
<svg version="1.0" xmlns="http://www.w3.org/2000/svg"
 width="260.000000pt" height="260.000000pt" viewBox="0 0 260.000000 260.000000"
 preserveAspectRatio="xMidYMid meet">
<metadata>
Created by potrace 1.11, written by Peter Selinger 2001-2013
</metadata>
<g transform="translate(0.000000,260.000000) scale(0.100000,-0.100000)"
fill="#000000" stroke="none">
<path d="M1190 2587 c-3 -3 -34 -8 -70 -11 -76 -6 -200 -38 -286 -72 -33 -13
-64 -24 -68 -24 -4 0 -21 -9 -37 -21 -16 -11 -29 -18 -29 -15 0 9 -168 -101
-218 -142 -249 -204 -414 -496 -459 -814 -10 -68 -10 -285 0 -364 46 -369 289
-730 622 -926 136 -80 317 -142 480 -164 70 -9 241 -11 295 -3 25 4 66 10 92
13 145 20 367 112 513 214 172 121 341 325 427 517 43 97 85 226 94 292 3 26
10 71 14 98 9 53 5 279 -5 330 -22 115 -29 145 -47 199 -65 203 -162 360 -318
516 -141 142 -300 245 -474 306 -41 15 -193 53 -236 60 -46 7 -285 16 -290 11z"/>
</g>
</svg>
